HIERARCHY
ROOT Hips
{
	OFFSET -0.179506 -22.333345 2.821913
	CHANNELS 6 Xposition Yposition Zposition Zrotation Yrotation Xrotation 
	JOINT LeftUpLeg
	{
		OFFSET 6.951974 -9.140623 -0.681533
		CHANNELS 3 Zrotation Yrotation Xrotation
		JOINT LeftLeg
		{
			OFFSET 3.427654 -37.519855 -0.449580
			CHANNELS 3 Zrotation Yrotation Xrotation
			JOINT LeftFoot
			{
				OFFSET -1.359570 -39.796059 -4.369333
				CHANNELS 3 Zrotation Yrotation Xrotation
				JOINT LeftToe
				{
					OFFSET 2.635814 -5.579078 11.928840
					CHANNELS 3 Zrotation Yrotation Xrotation
					End Site
					{
						OFFSET 0.000000 0.000000 0.000000
					}
				}
			}
		}
	}
	JOINT RightUpLeg
	{
		OFFSET -6.767048 -9.052170 -0.431982
		CHANNELS 3 Zrotation Yrotation Xrotation
		JOINT RightLeg
		{
			OFFSET -3.829005 -38.256897 -0.885003
			CHANNELS 3 Zrotation Yrotation Xrotation
			JOINT RightFoot
			{
				OFFSET 1.577377 -39.841461 -4.231180
				CHANNELS 3 Zrotation Yrotation Xrotation
				JOINT RightToe
				{
					OFFSET -2.537174 -4.814398 12.334795
					CHANNELS 3 Zrotation Yrotation Xrotation
					End Site
					{
						OFFSET 0.000000 0.000000 0.000000
					}
				}
			}
		}
	}
	JOINT Spine
	{
		OFFSET -0.253288 10.896323 -2.669631
		CHANNELS 3 Zrotation Yrotation Xrotation
		JOINT Spine1
		{
			OFFSET 0.548704 13.518043 0.109247
			CHANNELS 3 Zrotation Yrotation Xrotation
			JOINT Spine2
			{
				OFFSET 0.145701 5.292222 2.542457
				CHANNELS 3 Zrotation Yrotation Xrotation
				JOINT Neck
				{
					OFFSET -0.277840 21.387037 -4.285703
					CHANNELS 3 Zrotation Yrotation Xrotation
					JOINT Head
					{
						OFFSET 0.515184 6.496960 5.134897
						CHANNELS 3 Zrotation Yrotation Xrotation
						End Site
						{
							OFFSET 0.000000 0.000000 0.000000
						}
					}
				}
				JOINT LeftShoulder
				{
					OFFSET 7.884473 12.174932 -3.408961
					CHANNELS 3 Zrotation Yrotation Xrotation
					JOINT LeftArm
					{
						OFFSET 9.097692 3.046888 -0.886815
						CHANNELS 3 Zrotation Yrotation Xrotation
						JOINT LeftForeArm
						{
							OFFSET 25.961220 -1.277207 -2.745643
							CHANNELS 3 Zrotation Yrotation Xrotation
							JOINT LeftHand
							{
								OFFSET 24.923361 0.898606 -0.117091
								CHANNELS 3 Zrotation Yrotation Xrotation
								End Site
								{
									OFFSET 0.000000 0.000000 0.000000
								}
							}
						}
					}
				}
				JOINT RightShoulder
				{
					OFFSET -8.175920 11.883285 -3.861528
					CHANNELS 3 Zrotation Yrotation Xrotation
					JOINT RightArm
					{
						OFFSET -9.601238 3.255117 -0.914307
						CHANNELS 3 Zrotation Yrotation Xrotation
						JOINT RightForeArm
						{
							OFFSET -25.374195 -1.332924 -2.140099
							CHANNELS 3 Zrotation Yrotation Xrotation
							JOINT RightHand
							{
								OFFSET -25.529810 0.777228 -0.555919
								CHANNELS 3 Zrotation Yrotation Xrotation
								End Site
								{
									OFFSET 0.000000 0.000000 0.000000
								}
							}
						}
					}
				}
			}
		}
	}
}
MOTION
Frames: 7
Frame Time: 0.033333
-49.957752 125.389854 90.004509 158.139930 3.649569 96.139863 16.658231 1.514768 -29.800268 -3.436105 8.814288 30.476033 3.638999 6.553432 -13.960602 nan nan nan -13.515631 -6.149656 -1.697057 -0.199635 -10.296073 23.098806 6.734790 0.357643 -17.039004 nan nan nan -6.469875 10.481094 5.657895 -1.675579 -1.150449 12.431166 -0.608678 4.433108 -5.235209 6.052217 14.333528 21.495742 -0.950010 2.724575 9.867867 -0.288015 -9.652974 -8.831720 -59.688650 -34.420529 15.752926 134.114461 -44.896772 -95.137514 3.986745 -19.732780 -5.860554 0.987444 24.069951 -5.687787 59.512395 43.885156 17.404130 -133.179695 51.385537 -105.960939 -0.461347 14.466686 -14.775517 
-49.945137 125.195702 90.173393 156.712503 3.493596 95.880846 16.655262 1.993801 -28.823818 -3.397171 9.412553 29.745389 3.436084 6.632590 -13.669968 nan nan nan -13.858127 -6.354591 -1.919512 -0.147920 -11.222967 22.953819 7.013675 0.167882 -16.889676 nan nan nan -6.729229 10.244943 5.550397 -1.692020 -1.090795 11.930810 -0.614595 4.861336 -5.230628 6.504783 13.601769 21.782770 -1.047524 2.974709 10.022414 -0.210725 -9.673237 -8.361330 -59.608072 -34.705329 15.603464 133.890749 -44.946314 -94.712659 4.130163 -20.254549 -5.481992 1.208790 23.412293 -6.202055 60.780061 43.283579 18.317546 -133.956362 51.911900 -106.906940 0.033732 14.768540 -14.692250 
-49.910503 124.972153 90.308525 155.258820 3.407010 95.648633 16.661136 2.686590 -27.952547 -3.127243 10.187623 29.190208 3.321444 6.563961 -13.450743 nan nan nan -14.081180 -6.732064 -2.242751 -0.175879 -11.953642 22.969525 7.121455 0.351089 -16.510249 nan nan nan -6.541555 9.886836 5.091726 -1.763848 -1.064989 12.075898 -0.719511 4.758016 -5.304262 6.744430 13.896399 22.384661 -1.525883 2.693956 9.911551 -0.301398 -9.397587 -8.516785 -59.130644 -34.159436 15.095086 133.886287 -44.673185 -94.787860 3.535016 -20.474613 -5.312934 1.132181 23.847655 -6.106599 61.420275 43.261392 18.877927 -134.126811 52.178245 -107.195606 0.342364 15.115905 -14.769459 
-49.850037 124.753571 90.444244 153.797982 3.289229 95.381529 16.687369 3.395820 -26.990418 -2.974033 10.906799 28.553996 3.277291 6.493023 -13.223161 nan nan nan -14.314295 -7.254343 -2.544950 -0.226044 -12.635428 22.969076 7.131043 0.516407 -16.073454 nan nan nan -6.560509 9.719601 4.737261 -1.721451 -0.948323 12.476711 -0.798126 4.531601 -5.719959 7.015491 14.017543 22.672406 -1.886416 2.398633 9.842661 -0.218523 -8.979485 -8.396637 -59.085374 -34.067036 14.829708 133.982317 -44.424737 -95.032241 2.998110 -20.656032 -5.284058 1.209529 23.879778 -6.033055 62.040829 43.303601 19.558599 -134.280186 52.425854 -107.405857 0.739653 15.322755 -14.854267 
-49.797626 124.537628 90.564568 152.391333 3.181982 95.120860 16.716051 4.072080 -26.038113 -2.911121 11.424116 27.872238 3.216636 6.546966 -12.985555 nan nan nan -14.486351 -7.572982 -2.815944 -0.258208 -13.252100 22.849139 7.200894 0.508940 -15.596407 nan nan nan -6.407054 9.397383 4.540103 -1.755868 -0.942794 12.352293 -0.929274 4.335942 -5.728506 7.197703 14.383933 22.917442 -2.185891 2.241565 9.822177 -0.172438 -8.545429 -8.355888 -58.786608 -33.702777 14.395304 134.235885 -44.230730 -95.340145 2.898696 -20.607951 -4.687423 1.223160 24.087929 -5.829756 62.567721 43.376539 20.166612 -134.473572 52.806428 -107.814968 0.758162 15.426876 -15.131905 
-49.725132 124.294693 90.667870 151.032341 3.048078 94.816916 16.735849 4.672931 -24.996932 -2.919985 11.847738 27.055610 3.191950 6.797813 -12.666344 nan nan nan -14.624547 -7.671262 -2.917515 -0.181332 -13.779486 22.405532 7.071642 0.542372 -15.205770 nan nan nan -6.241731 9.174002 4.057469 -1.739777 -0.793623 12.930332 -1.081459 4.093327 -5.907436 7.351177 14.621136 23.008239 -2.482403 1.944172 9.858327 -0.089119 -8.426495 -8.382118 -58.374664 -33.366810 14.032534 134.245683 -43.893391 -95.369608 2.889926 -20.322289 -4.060144 0.976536 24.182649 -6.007686 63.040835 43.209349 20.848326 -134.788821 53.103437 -108.449309 0.453034 15.179400 -16.099428 
-49.606174 124.049934 90.767471 149.797415 2.914848 94.628125 16.794609 5.172948 -24.034520 -2.920364 12.304901 26.149035 3.062789 6.989672 -12.251708 nan nan nan -14.709357 -7.810375 -2.950984 0.086189 -14.205149 21.645860 6.942581 0.660384 -14.783390 nan nan nan -6.228152 8.741775 3.829713 -1.724869 -0.805066 13.018504 -1.228258 4.223471 -6.286745 7.496149 14.574700 23.178296 -2.729324 1.839295 10.193686 0.103310 -8.037867 -8.054968 -58.242893 -33.222980 13.854948 134.216430 -43.699366 -95.363020 3.632248 -20.125607 -4.123813 1.112465 24.013059 -5.740374 63.702183 43.330810 21.545903 -135.185635 53.354872 -109.171671 0.666060 14.784361 -16.948069 
